<?xml version="1.0" encoding="UTF-8" standalone="no"?>
<!-- Created with Inkscape (http://www.inkscape.org/) -->

<svg
   xmlns:dc="http://purl.org/dc/elements/1.1/"
   xmlns:cc="http://creativecommons.org/ns#"
   xmlns:rdf="http://www.w3.org/1999/02/22-rdf-syntax-ns#"
   xmlns:svg="http://www.w3.org/2000/svg"
   xmlns="http://www.w3.org/2000/svg"
   xmlns:xlink="http://www.w3.org/1999/xlink"
   xmlns:sodipodi="http://sodipodi.sourceforge.net/DTD/sodipodi-0.dtd"
   xmlns:inkscape="http://www.inkscape.org/namespaces/inkscape"
   width="150"
   height="40"
   id="svg2"
   version="1.1"
   inkscape:version="0.48.3.1 r9886"
   sodipodi:docname="logo_fundacite_150x40_v2.svg"
   inkscape:export-filename="/home/cpinto/Imágenes/logo_fundacite_250x67_v2.png"
   inkscape:export-xdpi="150"
   inkscape:export-ydpi="150">
  <defs
     id="defs4">
    <inkscape:perspective
       sodipodi:type="inkscape:persp3d"
       inkscape:vp_x="0 : 526.18109 : 1"
       inkscape:vp_y="0 : 1000 : 0"
       inkscape:vp_z="744.09448 : 526.18109 : 1"
       inkscape:persp3d-origin="372.04724 : 350.78739 : 1"
       id="perspective10" />
    <linearGradient
       y2="1149.505"
       x2="331.42856"
       y1="152.36218"
       x1="331.42856"
       gradientTransform="matrix(1.5319325,0,0,1.7070509,-1267.5251,-435.45707)"
       gradientUnits="userSpaceOnUse"
       id="linearGradient2999"
       xlink:href="#linearGradient2987"
       inkscape:collect="always" />
    <linearGradient
       gradientTransform="matrix(1.5319325,0,0,1.7070509,-51.521189,-710.0386)"
       gradientUnits="userSpaceOnUse"
       y2="1149.505"
       x2="331.42856"
       y1="152.36218"
       x1="331.42856"
       id="linearGradient2993"
       xlink:href="#linearGradient2987"
       inkscape:collect="always" />
    <linearGradient
       id="linearGradient2987">
      <stop
         id="stop2989"
         offset="0"
         style="stop-color:#333333;stop-opacity:1;" />
      <stop
         style="stop-color:#333333;stop-opacity:0.73780489;"
         offset="0.19627506"
         id="stop2995" />
      <stop
         id="stop2997"
         offset="0.61318052"
         style="stop-color:#333333;stop-opacity:0.76219511;" />
      <stop
         id="stop2991"
         offset="1"
         style="stop-color:#333333;stop-opacity:1;" />
    </linearGradient>
    <inkscape:perspective
       id="perspective3026"
       inkscape:persp3d-origin="526.18109 : 248.03149 : 1"
       inkscape:vp_z="1052.3622 : 372.04724 : 1"
       inkscape:vp_y="0 : 1000 : 0"
       inkscape:vp_x="0 : 372.04724 : 1"
       sodipodi:type="inkscape:persp3d" />
    <inkscape:perspective
       id="perspective3210"
       inkscape:persp3d-origin="0.5 : 0.33333333 : 1"
       inkscape:vp_z="1 : 0.5 : 1"
       inkscape:vp_y="0 : 1000 : 0"
       inkscape:vp_x="0 : 0.5 : 1"
       sodipodi:type="inkscape:persp3d" />
    <filter
       color-interpolation-filters="sRGB"
       height="1.8662825"
       y="-0.43314123"
       width="1.8197989"
       x="-0.4098995"
       id="filter3928-8"
       inkscape:collect="always">
      <feGaussianBlur
         id="feGaussianBlur3930-8"
         stdDeviation="12.504375"
         inkscape:collect="always" />
    </filter>
  </defs>
  <sodipodi:namedview
     id="base"
     pagecolor="#ffffff"
     bordercolor="#666666"
     borderopacity="1.0"
     inkscape:pageopacity="0.0"
     inkscape:pageshadow="2"
     inkscape:zoom="2.8"
     inkscape:cx="43.543878"
     inkscape:cy="23.348445"
     inkscape:document-units="px"
     inkscape:current-layer="g3263"
     showgrid="false"
     inkscape:window-width="1280"
     inkscape:window-height="946"
     inkscape:window-x="0"
     inkscape:window-y="24"
     inkscape:window-maximized="1" />
  <metadata
     id="metadata7">
    <rdf:RDF>
      <cc:Work
         rdf:about="">
        <dc:format>image/svg+xml</dc:format>
        <dc:type
           rdf:resource="http://purl.org/dc/dcmitype/StillImage" />
        <dc:title></dc:title>
      </cc:Work>
    </rdf:RDF>
  </metadata>
  <g
     inkscape:label="Capa 1"
     inkscape:groupmode="layer"
     id="layer1"
     transform="translate(0,-1012.3622)">
    <g
       transform="translate(-397.55709,419.01552)"
       id="layer1-1"
       inkscape:label="Capa 1">
      <g
         id="g3263"
         transform="matrix(0.14843786,0,0,0.14843786,408.85405,540.01325)">
        <g
           id="g3010"
           style="fill:#0042cd;fill-opacity:1">
          <path
             style="fill:#0042cd;stroke:none;fill-opacity:1"
             d="m 56.065486,618.71226 c -22.55064,1.95212 -44.29522,-38.18584 -48.7398497,-103.44297 -4.44462,-65.257 8.4713797,-149.92597 34.4145297,-150.21242 25.42891,-0.28076 45.30024,57.23776 47.01279,123.40548 1.69231,65.38638 0.61168,127.36731 -32.68747,130.24991 z m -10.80272,-31.47869 c 18.54046,-5.62712 30.79135,-40.57444 27.12517,-94.40224 -3.66618,-53.82775 -21.12715,-100.87894 -36.02201,-99.39433 -14.27303,1.42267 -31.4406497,47.41964 -29.5960497,101.39827 1.88968,55.29792 22.1567097,97.3563 38.4928897,92.3983 z"
             id="path4134"
             inkscape:connector-curvature="0"
             sodipodi:nodetypes="ssssssssss" />
          <path
             style="fill:#0042cd;stroke:none;fill-opacity:1"
             d="m 142.06951,412.11146 c -4.81285,-19.65608 -52.251674,-10.8503 -101.182104,32.21492 -49.8913897,43.911 -107.44146,112.55769 -82.72314,140.6988 17.23128,19.61732 62.16544,-6.72551 111.09588,-52.06748 48.750034,-45.17479 77.216474,-102.84726 72.809364,-120.84624 z m -34.30344,12.52071 c 6.33564,8.56795 -3.39448,55.05091 -44.562934,92.71394 -40.44914,37.00508 -84.28021,62.19105 -95.32201,46.36457 -10.68515,-15.31529 15.02923,-65.74842 56.51651,-101.58572 42.50124,-36.71314 77.032784,-46.06075 83.368434,-37.49279 z"
             id="path4136"
             inkscape:connector-curvature="0"
             sodipodi:nodetypes="ssssszsssz" />
          <path
             inkscape:connector-curvature="0"
             id="path4138"
             d="m 139.62221,574.56194 c 0.2355,5.69788 -50.059754,-12.40469 -95.777784,-60.64565 -45.7180297,-48.24096 -98.83606,-92.61548 -90.24674,-105.61363 10.19564,-15.429 51.2653503,20.05289 100.19844,67.27739 47.823944,46.15402 85.060824,80.46699 85.826084,98.98189 z m -30.53033,-22.55632 c -5.41704,-7.4993 -20.167804,-30.7452 -59.331304,-69.1083 -39.9647197,-39.14794 -80.63465,-65.43651 -85.27588,-62.12104 -6.62273,4.73095 27.3702303,36.38436 65.88895,77.36194 38.85515,41.33551 82.908114,59.66778 78.718234,53.8674 z"
             style="fill:#0042cd;stroke:none;fill-opacity:1"
             sodipodi:nodetypes="ssssssssss" />
          <path
             sodipodi:nodetypes="ssssssssss"
             inkscape:connector-curvature="0"
             id="path4142"
             d="m 177.32559,489.80213 c -11.3254,-10.87199 -73.25269,-16.29137 -139.832984,-14.78124 -66.58029,1.51011 -121.97617,12.19718 -108.65219,23.86036 11.26606,9.86185 88.38433,16.08664 154.96464,14.57643 66.580274,-1.5101 103.812854,-13.77527 93.520534,-23.65555 z m -37.58907,-2.91131 c 10.74182,8.35724 -9.77631,15.69764 -64.695584,16.94327 -54.91927,1.24564 -113.48273,-1.86071 -122.2599,-9.13974 -8.41078,-6.97514 10.62092,-16.66261 64.43693,-18.79672 55.13122,-2.18627 111.861574,2.70196 122.518554,10.99319 z"
             style="fill:#0042cd;stroke:none;fill-opacity:1" />
        </g>
        <path
           inkscape:connector-curvature="0"
           style="fill:#00005f;stroke:#000000;stroke-width:0.37575752000000001;stroke-miterlimit:4;stroke-dasharray:none;fill-opacity:1"
           d="m 336.40869,457.76486 0,52.27441 c 0,2.517 0.68896,7.2116 -4.50145,7.2116 l -24.6233,0 c -4.90493,-0.0456 -6.49515,-2.49603 -6.49515,-7.53059 l 0,-51.63641 -19.48325,0 0,62.91226 c 0,1.03249 0.21091,2.0979 0.5585,3.1875 l 71.91625,0 c 0.14967,-0.99896 0.22751,-2.05462 0.19915,-3.1875 l 0.27925,-63.23127 -17.85,0 z m 105.46565,0.15951 -15.81845,0.11817 0.11808,50.79975 c 0.28464,4.03941 -4.37626,4.43482 -6.37415,-1.59377 L 401.51168,471.2703 c -6.60529,-17.21511 -33.5949,-17.46034 -36.97487,-0.43822 l -0.11807,53.35047 17.89005,0 0.19915,-42.27415 c 0.52133,-1.87817 2.14754,-2.23323 3.38665,0.11829 l 20.75825,38.72814 c 0.71156,1.24065 1.51851,2.36932 2.35085,3.42612 l 31.8739,0 c 0.46692,-1.04919 0.83367,-2.19677 1.1159,-3.42612 l -0.11807,-62.83321 z m -221.40945,0.1595 c -7.56613,0 -17.8489,6.45778 -17.8489,14.0247 l 0,52.07506 17.8489,0 0,-17.33179 48.45,-0.31906 0,-19.12453 -48.45,0.51798 0,-9.44279 c 0,-1.53251 2.29315,-2.54995 3.825,-2.54995 l 44.625,0 0,-17.84962 -48.45,0 z m 233.3217,0 0,17.84962 52.275,0 c 1.8999,0 5.1,0.64938 5.1,2.54995 l 0,31.87434 c 0,2.47826 -1.3467,6.375 -3.825,6.375 l -35.7,0 0,-33.14945 -17.85,0 0,40.6003 73.67075,0 c 0.19162,-0.79245 0.27815,-1.58561 0.27815,-2.35085 l 0,-50.99918 c 0,-6.01064 -6.739,-12.74973 -12.7489,-12.74973 l -61.2,0 z m 89.24892,0 0,17.84962 55.2233,0 4.7006,2.54995 0,12.74972 c 0,0.84999 -1.9488,0.60085 -2.55,0 -1.2749,-1.27497 -2.0214,-3.82491 -3.8239,-3.82491 l -39.525,0 c -6.611,0 -14.025,7.41348 -14.025,14.02461 l 0,21.67492 c 0,0.36402 0.021,0.71713 0.085,1.07585 l 76.4192,0 0,-48.25014 c 0,-7.56684 -6.4581,-17.84962 -14.0248,-17.84962 l -62.4741,0 z m 101.9989,0 c -6.0109,0 -12.75,6.73907 -12.75,12.74973 l 0,50.99918 c 0,0.77865 0.1485,1.56399 0.3582,2.35085 l 62.1157,0 0,-7.45085 -40.7989,0 c -1.8036,0 -3.825,-2.02158 -3.825,-3.825 l 0,-34.42434 c 0,-1.53251 2.292,-2.54995 3.825,-2.54995 l 40.7989,0 0,-17.84962 -49.7239,0 z m 101.9989,0 0,17.84962 26.7739,0 0,48.25014 19.125,0 0,-66.09976 -45.8989,0 z m 49.7239,0 0,66.09976 19.125,0 0,-48.25014 26.7739,0 0,-17.84962 -45.8989,0 z m 72.6739,0 c -6.3183,0 -14.025,6.43176 -14.025,12.74973 l 0,50.99918 c 0,0.78992 0.136,1.57036 0.3583,2.35085 l 72.3149,0 0,-7.45085 -49.7232,0 c -1.8036,0 -3.825,-2.02158 -3.825,-3.825 l 0,-6.375 40.7983,0 c 16.151,0 16.151,-48.44891 0,-48.44891 l -45.8983,0 z m 6.375,17.84962 33.1484,0 c 3.8249,0 3.8249,11.47476 0,11.47476 l -34.4234,0 0,-10.19979 c 0,-0.60094 0.6738,-1.27497 1.275,-1.27497 z m -313.6456,30.59929 40.7989,0 0,7.65 c 0,1.2023 -1.3476,2.55 -2.55,2.55 l -35.6989,0 c -0.95,0 -2.55,-1.59956 -2.55,-2.55 l 0,-7.65 z m -359.54452,22.79059 0,5.25939 17.8489,0 0,-5.25939 -17.8489,0 z m 82.03725,0 c 2.49202,3.14409 6.06596,5.53813 9.6415,5.53813 l 45.4216,0 c 5.58937,0 9.87448,-1.88879 12.23155,-5.53813 l -67.29465,0 z m 79.72535,0 0,4.38271 17.89005,0 0.0422,-4.38271 -17.92943,0 z m 50.00315,0 c 7.62808,5.33211 17.04208,5.31277 22.83095,0 l -22.83095,0 z m 39.40485,0 0,5.25939 62.475,0 c 3.24065,0 6.47453,-2.26032 8.6858,-5.25939 l -71.1608,0 z m 91.99802,0 c 2.8657,3.11159 7.4665,5.25939 11.2759,5.25939 l 42.074,0 c 0,-2.54998 3.8249,-2.54998 3.8249,0 l 16.575,0 0,-5.25939 -73.7498,0 z m 89.5682,0 c 2.5175,3.03652 6.2252,5.25939 9.6816,5.25939 l 49.7239,0 0,-5.25939 -59.4055,0 z m 138.4544,0 0,5.25939 19.125,0 0,-5.25939 -19.125,0 z m 22.95,0 0,5.25939 19.125,0 0,-5.25939 -19.125,0 z m 62.0355,0 c 2.8251,3.0706 6.9579,5.25939 10.6384,5.25939 l 58.6482,0 0,-5.25939 -69.2866,0 z"
           id="path4146" />
        <g
           transform="matrix(0,-0.58282096,0.85652739,0,-339.19968,1494.5814)"
           style="font-size:40px;font-style:normal;font-weight:normal;line-height:125%;letter-spacing:0px;word-spacing:0px;fill:#00005f;stroke:#000000;stroke-width:0.53053415000000004;stroke-miterlimit:4;stroke-dasharray:none;font-family:Sans;fill-opacity:1"
           id="flowRoot4097">
          <path
             d="m 1666.2813,1224.8856 0,3.8476 c -1.4975,-0.7161 -2.9102,-1.2499 -4.2383,-1.6015 -1.3282,-0.3516 -2.6107,-0.5273 -3.8477,-0.5274 -2.1484,10e-5 -3.8086,0.4167 -4.9805,1.25 -1.1588,0.8334 -1.7382,2.0183 -1.7382,3.5547 0,1.2891 0.3841,2.2657 1.1523,2.9297 0.7812,0.6511 2.2526,1.1784 4.4141,1.582 l 2.3828,0.4883 c 2.9427,0.5599 5.1106,1.5495 6.5039,2.9688 1.4062,1.4062 2.1093,3.2943 2.1094,5.664 -10e-5,2.8256 -0.9506,4.9675 -2.8516,6.4258 -1.888,1.4584 -4.6615,2.1875 -8.3203,2.1875 -1.3802,0 -2.8516,-0.1562 -4.4141,-0.4687 -1.5495,-0.3125 -3.1575,-0.7748 -4.8242,-1.3867 l 0,-4.0625 c 1.6016,0.8984 3.1706,1.5755 4.707,2.0312 1.5365,0.4557 3.0469,0.6836 4.5313,0.6836 2.2526,0 3.9909,-0.4427 5.2148,-1.3281 1.224,-0.8854 1.8359,-2.1485 1.836,-3.7891 -10e-5,-1.4323 -0.4428,-2.5521 -1.3282,-3.3594 -0.8724,-0.8072 -2.3112,-1.4127 -4.3164,-1.8164 l -2.4023,-0.4687 c -2.9427,-0.5859 -5.0716,-1.5039 -6.3867,-2.7539 -1.3151,-1.25 -1.9727,-2.9883 -1.9727,-5.2149 0,-2.5781 0.905,-4.6093 2.7149,-6.0937 1.8229,-1.4844 4.3294,-2.2266 7.5195,-2.2266 1.3672,0 2.7604,0.1237 4.1797,0.3711 1.4192,0.2474 2.8711,0.6185 4.3555,1.1133"
             style="fill:#00005f;stroke:#000000;stroke-width:0.53053415000000004;stroke-miterlimit:4;stroke-dasharray:none;-inkscape-font-specification:Sans;fill-opacity:1"
             id="path4106"
             inkscape:connector-curvature="0" />
          <path
             d="m 1673.7422,1223.9286 3.9648,0 0,17.7148 c 0,3.125 0.5664,5.3776 1.6993,6.7578 1.1328,1.3672 2.9687,2.0508 5.5078,2.0508 2.526,0 4.3554,-0.6836 5.4882,-2.0508 1.1328,-1.3802 1.6992,-3.6328 1.6993,-6.7578 l 0,-17.7148 3.9648,0 0,18.2031 c 0,3.8021 -0.944,6.6732 -2.832,8.6133 -1.875,1.9401 -4.6485,2.9101 -8.3203,2.9101 -3.6849,0 -6.4714,-0.97 -8.3594,-2.9101 -1.875,-1.9401 -2.8125,-4.8112 -2.8125,-8.6133 l 0,-18.2031"
             style="fill:#00005f;stroke:#000000;stroke-width:0.53053415000000004;stroke-miterlimit:4;stroke-dasharray:none;-inkscape-font-specification:Sans;fill-opacity:1"
             id="path4108"
             inkscape:connector-curvature="0" />
          <path
             d="m 1725.3242,1226.1747 0,4.1601 c -1.3281,-1.2369 -2.7474,-2.1614 -4.2578,-2.7734 -1.4974,-0.612 -3.0925,-0.918 -4.7851,-0.918 -3.3334,0 -5.8855,1.0222 -7.6563,3.0664 -1.7708,2.0313 -2.6563,4.974 -2.6562,8.8281 -1e-4,3.8412 0.8854,6.7839 2.6562,8.8282 1.7708,2.0312 4.3229,3.0468 7.6563,3.0468 1.6926,0 3.2877,-0.306 4.7851,-0.9179 1.5104,-0.612 2.9297,-1.5365 4.2578,-2.7735 l 0,4.1211 c -1.3802,0.9375 -2.8451,1.6406 -4.3945,2.1094 -1.5365,0.4687 -3.1641,0.7031 -4.8828,0.7031 -4.4141,0 -7.8907,-1.3476 -10.4297,-4.0429 -2.5391,-2.7084 -3.8086,-6.3998 -3.8086,-11.0743 0,-4.6874 1.2695,-8.3788 3.8086,-11.0742 2.539,-2.7083 6.0156,-4.0625 10.4297,-4.0625 1.7447,0 3.3854,0.2344 4.9219,0.7031 1.5494,0.4558 3.0012,1.1459 4.3554,2.0704"
             style="fill:#00005f;stroke:#000000;stroke-width:0.53053415000000004;stroke-miterlimit:4;stroke-dasharray:none;-inkscape-font-specification:Sans;fill-opacity:1"
             id="path4110"
             inkscape:connector-curvature="0" />
          <path
             d="m 1745.2852,1239.4168 c 0.8463,0.2865 1.6666,0.8985 2.4609,1.836 0.8073,0.9375 1.6146,2.2266 2.4219,3.8672 l 4.0039,7.9687 -4.2383,0 -3.7305,-7.4805 c -0.9635,-1.9531 -1.901,-3.2486 -2.8125,-3.8867 -0.8984,-0.638 -2.1289,-0.957 -3.6914,-0.957 l -4.2969,0 0,12.3242 -3.9453,0 0,-29.1601 8.9063,0 c 3.3333,0 5.8203,0.6966 7.4609,2.0898 1.6406,1.3933 2.4609,3.4961 2.461,6.3086 -10e-5,1.836 -0.4298,3.3594 -1.2891,4.5703 -0.8464,1.211 -2.0834,2.0508 -3.7109,2.5195 m -9.8829,-12.2461 0,10.3516 4.961,0 c 1.901,0 3.3333,-0.4362 4.2969,-1.3086 0.9765,-0.8854 1.4648,-2.181 1.4648,-3.8867 0,-1.7057 -0.4883,-2.9883 -1.4648,-3.8477 -0.9636,-0.8723 -2.3959,-1.3085 -4.2969,-1.3086 l -4.961,0"
             style="fill:#00005f;stroke:#000000;stroke-width:0.53053415000000004;stroke-miterlimit:4;stroke-dasharray:none;-inkscape-font-specification:Sans;fill-opacity:1"
             id="path4112"
             inkscape:connector-curvature="0" />
          <path
             d="m 1759.2695,1223.9286 18.4375,0 0,3.3203 -14.4922,0 0,8.6328 13.8868,0 0,3.3203 -13.8868,0 0,10.5664 14.8438,0 0,3.3203 -18.7891,0 0,-29.1601"
             style="fill:#00005f;stroke:#000000;stroke-width:0.53053415000000004;stroke-miterlimit:4;stroke-dasharray:none;-inkscape-font-specification:Sans;fill-opacity:1"
             id="path4114"
             inkscape:connector-curvature="0" />
        </g>
      </g>
    </g>
  </g>
</svg>
